<svg width="24" height="24" viewBox="0 0 24 24" fill="none" xmlns="http://www.w3.org/2000/svg">
<g id="homepage - desktop">
<g id="Group 205">
<g id="Group 209">
<path id="Vector" d="M4.3024 0C6.74532 0 17.0767 0 19.4681 0C21.8595 0 23.7701 2.51746 23.7701 4.26746C23.7701 6.01746 23.7701 17.455 23.7701 19.7675C23.7701 22.08 21.672 23.77 19.4681 23.77C17.2642 23.77 15.2725 23.77 15.2725 23.77C14.8566 23.675 14.8566 22.8666 14.8566 22.5814V19.3248C14.8566 18.2195 14.4644 17.4944 14.0365 17.1262C16.687 16.8289 19.4681 15.8306 19.4681 11.2907C19.4681 9.97146 19.0165 8.91378 18.2438 8.06976C18.3628 7.77254 18.7787 6.53659 18.1249 4.93211C18.1249 4.93211 17.1265 4.61121 14.8566 6.14438C13.9176 5.88282 12.8956 5.75218 11.8852 5.75218C10.8749 5.75218 9.8529 5.88282 8.91389 6.14438C6.64394 4.61121 5.64559 4.93211 5.64559 4.93211C4.99182 6.53659 5.40799 7.77254 5.52665 8.06976C4.75422 8.91351 4.3024 9.97146 4.3024 11.2907C4.3024 15.8189 7.07152 16.8409 9.71 17.1381C9.37713 17.4354 9.06821 17.9582 8.96124 18.7306C8.2838 19.0159 6.53669 19.5507 5.5027 17.7443C5.5027 17.7443 4.87288 16.6033 3.68428 16.52C3.68428 16.52 2.51964 16.4964 3.56534 17.2331C3.56534 17.2331 4.37343 17.6017 4.92024 18.9802C4.92024 18.9802 5.62136 21.2858 8.91361 20.5727V22.5814C8.91361 22.8666 8.91361 23.6747 8.48575 23.77C8.48575 23.77 5.93292 23.77 4.3024 23.77C2.67188 23.77 0 22.0175 0 19.7675C0 17.5175 0.000103876 6.07996 0.000103876 4.26746C0.000103876 2.45496 1.85948 0 4.3024 0Z" fill="var(--ink)"/>
</g>
</g>
</g>
</svg>
